<svg xmlns="http://www.w3.org/2000/svg" width="21" height="21" fill="none" viewBox="0 0 21 21">
  <path stroke="#fff" stroke-linecap="round" stroke-linejoin="round" stroke-width="1.5" d="M9.742 1.039H6.003C2.928 1.039 1 3.216 1 6.298v8.314c0 3.082 1.919 5.259 5.003 5.259h8.824c3.085 0 5.004-2.177 5.004-5.26v-4.027"/>
  <path stroke="#fff" stroke-linecap="round" stroke-linejoin="round" stroke-width="1.5" d="m7.078 9.17 7.472-7.473c.931-.93 2.44-.93 3.372 0l1.216 1.217a2.383 2.383 0 0 1 0 3.371l-7.509 7.51a2.17 2.17 0 0 1-1.534.636H6.348l.094-3.78a2.17 2.17 0 0 1 .635-1.48Z" clip-rule="evenodd"/>
  <path stroke="#fff" stroke-linecap="round" stroke-linejoin="round" stroke-width="1.5" d="m13.415 2.852 4.566 4.566"/>
</svg>
