<svg xmlns="http://www.w3.org/2000/svg" width="18" height="18" fill="none" viewBox="0 0 18 18">
 <defs>
    <linearGradient id="a" x1="18" x2="0" y1="18" y2="2" gradientUnits="userSpaceOnUse">
      <stop stop-color="#FE3260"/>
      <stop offset="1" stop-color="#33001B"/>
    </linearGradient>
  </defs>
  <path fill="url(#a)" d="m5.051 14.829.654.349A6.96 6.96 0 0 0 8.997 16H9a7 7 0 1 0-7-7v.003a6.96 6.96 0 0 0 .822 3.292l.35.654-.538 2.417 2.417-.537ZM0 18l1.058-4.762A9 9 0 0 1 9 0a9 9 0 0 1 9 9 9 9 0 0 1-13.238 7.942L0 18Z"/>
 
</svg>
