<svg xmlns="http://www.w3.org/2000/svg" width="20" height="20" fill="none" viewBox="0 0 20 20">
  <path fill="#BDBDBD" fill-rule="evenodd" d="M9.676 1.667c-4.423 0-8.01 3.507-8.01 7.832 0 4.326 3.587 7.833 8.01 7.833 1.892 0 3.63-.641 5.001-1.714l2.604 2.54.07.058a.627.627 0 0 0 .802-.06.594.594 0 0 0 0-.853l-2.574-2.51A7.71 7.71 0 0 0 17.686 9.5c0-4.325-3.586-7.832-8.01-7.832Zm0 1.206c3.742 0 6.776 2.967 6.776 6.626 0 3.66-3.034 6.627-6.776 6.627S2.9 13.159 2.9 9.499c0-3.66 3.034-6.626 6.776-6.626Z" clip-rule="evenodd"/>
</svg>
