<svg xmlns="http://www.w3.org/2000/svg" width="20" height="20" fill="none" viewBox="0 0 20 20">

  <defs>
    <linearGradient id="a" x1="19" x2="1" y1="14.5" y2="2.5" gradientUnits="userSpaceOnUse">
      <stop stop-color="#FF0084"/>
      <stop offset="1" stop-color="#33001B"/>
    </linearGradient>
  </defs>
  <path fill="url(#a)" fill-rule="evenodd" d="m13.855 6.121-5.663 5.702L1.56 7.74c-.87-.534-.693-1.854.286-2.138l15.655-4.556c.89-.257 1.714.577 1.447 1.472l-4.645 15.64c-.291.978-1.596 1.147-2.123.274l-3.99-6.61" clip-rule="evenodd"/>
  <path stroke="#fff" stroke-linecap="round" stroke-linejoin="round" stroke-width="1.5" d="m13.855 6.121-5.663 5.702L1.56 7.74c-.87-.534-.693-1.854.286-2.138l15.655-4.556c.89-.257 1.714.577 1.447 1.472l-4.645 15.64c-.291.978-1.596 1.147-2.123.274l-3.99-6.61"/>
  
</svg>
